<?xml version="1.0" standalone="no"?>
<!DOCTYPE svg PUBLIC "-//W3C//DTD SVG 20010904//EN"
 "http://www.w3.org/TR/2001/REC-SVG-20010904/DTD/svg10.dtd">
<svg version="1.0" xmlns="http://www.w3.org/2000/svg"
 width="500.000000pt" height="500.000000pt" viewBox="0 0 500.000000 500.000000"
 preserveAspectRatio="xMidYMid meet">
<metadata>
Created by potrace 1.14, written by Peter Selinger 2001-2017
</metadata>
<g transform="translate(0.000000,500.000000) scale(0.100000,-0.100000)"
fill="#000000" stroke="none">
<path d="M0 2500 l0 -2500 2500 0 2500 0 0 2500 0 2500 -2500 0 -2500 0 0
-2500z m2869 1755 c629 -132 1132 -539 1380 -1118 57 -132 92 -245 124 -402
19 -96 22 -141 22 -350 0 -213 -3 -253 -24 -355 -81 -397 -276 -752 -558
-1021 -150 -143 -306 -249 -508 -345 -451 -215 -1018 -236 -1489 -54 -604 234
-1043 753 -1183 1398 -35 163 -44 465 -18 644 101 712 597 1312 1270 1536 242
81 386 102 660 97 167 -3 221 -8 324 -30z"/>
<path d="M2476 4039 c-144 -16 -328 -65 -416 -109 -158 -80 -255 -274 -266
-535 -3 -66 -12 -147 -21 -180 -23 -86 -23 -221 0 -262 l17 -32 -40 -21 c-49
-25 -70 -64 -70 -129 0 -82 42 -117 160 -136 l35 -5 29 -113 c59 -233 157
-402 284 -489 26 -18 41 -35 38 -43 -3 -8 -28 -45 -57 -83 l-51 -69 -55 33
c-52 31 -113 47 -157 42 -13 -2 -27 13 -51 56 -47 83 -59 154 -43 260 14 98 6
116 -48 116 -66 0 -131 -88 -123 -168 4 -33 -25 -78 -60 -95 -23 -11 -31 -10
-70 15 -50 31 -104 36 -135 13 -16 -12 -22 -11 -46 7 -33 24 -109 35 -138 19
-29 -15 -38 -70 -18 -109 8 -16 31 -40 51 -52 44 -27 46 -50 5 -50 -19 0 -42
-11 -65 -32 -36 -31 -36 -31 -71 -15 -19 10 -57 17 -85 17 -64 0 -99 -30 -99
-86 0 -67 45 -115 122 -129 37 -7 37 -7 32 -49 -5 -36 -2 -47 21 -74 15 -18
26 -34 24 -36 -2 -2 -19 -11 -36 -20 -38 -19 -73 -81 -75 -130 -1 -42 20 -96
38 -96 7 0 55 28 106 61 111 73 157 94 225 104 l52 7 21 -41 c28 -55 81 -92
189 -130 l89 -33 23 -61 c16 -45 22 -79 20 -125 -2 -48 3 -74 19 -107 54 -111
227 -188 326 -145 17 7 42 10 57 6 21 -5 26 -13 29 -44 4 -47 28 -50 40 -4 7
27 13 32 26 26 9 -4 101 -10 203 -12 152 -3 202 -1 275 14 52 11 132 19 194
19 l105 0 10 -40 c14 -57 39 -54 43 5 l3 45 75 34 c97 44 245 141 282 186 78
95 68 241 -29 445 -61 128 -113 213 -239 390 l-96 136 65 65 c107 106 176 245
229 456 l25 103 36 5 c108 17 146 44 162 115 8 33 6 50 -10 85 l-19 43 64 4
c100 6 140 51 120 134 -9 36 -97 135 -180 204 l-76 63 0 66 c0 90 -25 236 -53
314 -68 187 -166 268 -399 332 -181 49 -392 65 -572 44z m418 -59 c146 -25
284 -70 353 -115 116 -77 188 -245 200 -464 6 -108 5 -113 -13 -107 -348 107
-934 131 -1344 55 -58 -11 -138 -29 -178 -40 -41 -11 -76 -18 -79 -16 -13 13
21 249 48 332 63 197 142 264 383 325 214 54 427 64 630 30z m-6 -644 c3 -4 0
-12 -6 -18 -13 -13 -17 -48 -5 -48 3 0 15 8 25 17 16 14 24 15 51 5 37 -14 57
-2 37 23 -10 13 -9 15 8 15 67 0 79 -9 101 -77 27 -81 85 -171 116 -179 13 -3
32 -1 43 5 18 9 23 6 44 -27 12 -20 38 -54 56 -74 l34 -37 -16 -135 c-46 -396
-149 -635 -325 -753 -103 -70 -143 -78 -391 -78 -304 1 -380 23 -507 151 -146
148 -231 400 -259 770 l-6 91 42 77 c44 79 90 143 151 207 26 28 45 38 82 43
26 3 67 9 91 12 43 6 43 5 39 -20 -4 -19 -1 -26 10 -26 9 0 19 5 22 10 9 15
44 12 62 -6 25 -24 40 -1 20 30 l-17 25 63 4 c83 6 427 0 435 -7z m424 -63
c74 -18 109 -31 112 -42 11 -36 26 -149 26 -198 0 -64 -14 -69 -59 -18 -43 49
-73 110 -86 175 -9 44 -16 56 -33 58 -20 3 -22 -1 -22 -40 0 -24 -3 -53 -6
-66 -6 -22 -7 -22 -26 -5 -22 20 -53 76 -74 135 l-13 39 37 -6 c20 -4 85 -18
144 -32z m-1302 3 c0 -3 -23 -35 -50 -72 -28 -36 -69 -101 -90 -144 -22 -43
-44 -81 -49 -84 -30 -19 -20 219 11 250 19 19 178 63 178 50z m1573 -127 c128
-118 166 -196 104 -213 -28 -7 -145 -8 -172 0 -19 5 -21 13 -20 92 0 48 -4
113 -8 145 -5 31 -5 57 0 57 5 0 48 -36 96 -81z m-1726 -366 c6 -54 10 -99 8
-101 -8 -10 -92 15 -113 33 -33 29 -37 92 -8 124 17 19 60 37 92 40 6 1 15
-40 21 -96z m1625 87 c65 -18 93 -76 67 -134 -12 -27 -41 -41 -103 -52 l-39
-7 6 34 c4 19 9 64 13 102 4 37 10 67 13 67 3 0 23 -5 43 -10z m-1716 -602
c-29 -98 -13 -229 39 -325 26 -48 31 -63 20 -67 -10 -3 -25 15 -46 54 -18 33
-52 79 -77 101 l-44 41 26 22 c25 19 26 25 18 61 -11 50 2 99 30 120 31 21 41
19 34 -7z m-469 -199 c18 -11 40 -34 49 -51 20 -40 47 -34 54 12 4 26 11 36
25 38 28 4 84 -35 113 -78 32 -48 56 -46 62 4 l5 39 44 -34 c60 -46 124 -161
108 -195 -13 -31 -19 -30 -56 8 -29 30 -32 31 -69 20 -44 -13 -121 -16 -139
-4 -6 4 -13 21 -15 37 -2 25 -7 30 -28 27 -118 -12 -160 0 -127 36 22 24 13
47 -24 62 -49 21 -79 50 -79 76 0 31 30 32 77 3z m1837 -221 c214 -301 303
-481 313 -633 7 -103 -17 -143 -127 -218 l-85 -58 -6 40 c-3 21 -10 46 -17 54
-9 11 -6 25 17 68 16 30 35 74 42 98 11 38 11 45 -3 55 -11 8 -17 35 -20 92
-7 122 -56 207 -177 305 l-44 36 -12 134 c-11 128 -8 159 16 159 4 0 51 -60
103 -132z m-862 -5 c-9 -68 -18 -123 -21 -123 -3 1 -26 18 -50 39 l-44 39 63
86 c35 48 64 85 65 84 2 -2 -4 -58 -13 -125z m135 97 c21 0 22 -5 25 -82 l3
-83 203 -3 202 -2 0 78 0 78 55 10 c65 12 61 18 69 -108 l4 -77 -44 6 c-28 4
-49 1 -59 -7 -10 -8 -47 -12 -114 -11 -134 3 -228 -24 -322 -90 -30 -21 -81
-17 -110 7 -14 13 -14 26 -3 122 21 171 22 175 47 168 12 -3 32 -6 44 -6z
m137 -87 l28 -33 -41 0 -41 0 1 53 c0 44 2 49 12 33 7 -11 25 -34 41 -53z
m196 62 c0 -16 -66 -75 -85 -75 -25 0 -70 32 -85 61 -10 18 -6 19 80 19 49 0
90 -2 90 -5z m50 -65 c0 -27 -3 -30 -32 -30 l-32 0 29 30 c16 17 30 30 32 30
2 0 3 -13 3 -30z m-1508 -28 c22 -27 35 -53 52 -104 9 -28 45 -22 57 8 l10 27
24 -23 c13 -12 29 -35 36 -51 10 -25 9 -32 -6 -49 -13 -15 -22 -17 -36 -10
-24 13 -63 13 -94 -2 -19 -9 -28 -9 -37 0 -7 7 -33 12 -59 12 -36 0 -55 -6
-77 -25 -26 -22 -31 -23 -36 -9 -6 15 1 29 38 80 17 23 -12 41 -74 47 -69 6
-107 26 -116 62 -8 33 11 55 48 55 40 0 67 -15 105 -58 27 -31 34 -34 47 -23
9 8 16 26 16 42 0 16 9 38 20 49 24 24 44 17 82 -28z m721 24 c42 -17 275
-212 265 -221 -2 -2 -15 -6 -29 -10 -22 -6 -29 -1 -47 29 -14 24 -26 34 -37
30 -19 -8 -19 -17 0 -54 l16 -30 -56 0 c-66 0 -119 -20 -161 -61 l-31 -30 -55
45 c-30 25 -63 60 -72 79 -62 133 74 280 207 223z m-559 -42 c27 -32 100 -47
163 -33 37 8 46 6 82 -18 49 -32 58 -68 14 -56 -35 10 -130 10 -163 0 -22 -7
-28 -3 -48 33 -23 41 -70 73 -100 68 -9 -1 -23 1 -29 5 -24 15 -13 27 22 27
26 0 42 -7 59 -26z m1589 -189 c127 -114 157 -166 165 -281 l5 -74 -82 2 -81
2 0 29 c0 17 12 45 29 66 55 70 62 101 22 101 -10 0 -24 -12 -31 -27 l-13 -28
-9 35 c-17 61 -38 116 -53 136 -12 17 -15 18 -30 3 -14 -14 -14 -19 4 -60 35
-76 29 -85 -30 -44 -57 39 -62 40 -77 22 -14 -16 -7 -25 47 -62 56 -38 91 -84
91 -121 0 -41 -16 -54 -67 -54 -33 0 -50 7 -78 31 -41 37 -71 34 -61 -6 l7
-26 -138 3 c-156 3 -157 4 -108 79 13 20 28 52 33 70 6 24 21 43 51 63 43 29
61 58 61 102 0 13 9 33 21 45 18 18 28 20 74 14 l54 -6 26 40 c15 25 33 41 44
41 11 0 67 -43 124 -95z m-318 68 c-49 -25 -64 -44 -71 -82 -10 -64 -15 -71
-53 -91 -25 -12 -42 -30 -50 -52 -7 -18 -25 -58 -40 -88 -16 -30 -31 -67 -35
-82 -6 -26 -10 -28 -56 -28 -60 0 -70 14 -78 106 -4 54 -1 71 22 118 60 123
193 198 381 214 6 1 -3 -6 -20 -15z m-1011 -37 c20 -8 42 -30 59 -58 14 -24
53 -65 86 -92 58 -45 61 -49 61 -92 0 -24 9 -66 19 -94 l19 -50 -73 0 c-58 0
-94 7 -176 36 -136 47 -172 67 -206 110 -53 70 -31 179 47 231 39 27 112 31
164 9z m-429 -93 c26 -17 50 -17 65 3 8 8 25 14 39 12 22 -3 26 -9 29 -40 3
-36 2 -38 -26 -38 -58 0 -159 -40 -242 -95 -45 -31 -85 -54 -87 -51 -3 3 -3
20 1 39 7 39 39 72 78 81 26 6 30 12 42 69 10 44 52 53 101 20z m1935 -368
c-5 -13 -19 -42 -30 -65 -20 -39 -22 -40 -71 -40 -44 0 -52 -3 -66 -28 l-16
-28 -43 15 c-54 20 -92 5 -100 -39 -5 -25 -11 -30 -35 -30 -32 0 -69 -31 -69
-58 0 -10 7 -27 15 -39 14 -20 13 -21 -28 -31 -154 -39 -411 -35 -579 9 -32 8
-37 14 -43 50 -4 22 -18 53 -33 70 -22 26 -31 30 -59 26 -31 -5 -33 -4 -43 34
-14 51 -50 77 -87 60 -22 -10 -29 -9 -47 7 -12 11 -30 23 -42 26 -16 5 -54 61
-54 81 0 3 324 5 720 5 l720 0 -10 -25z m-1373 -117 c4 -7 15 -33 23 -58 18
-53 40 -59 52 -14 4 17 15 37 23 44 12 10 16 8 25 -15 5 -14 10 -32 10 -38 0
-7 5 -29 11 -49 12 -45 40 -51 57 -13 13 28 24 31 41 12 23 -28 24 -71 2 -91
-19 -17 -26 -18 -76 -7 -65 15 -141 63 -172 110 -16 24 -23 49 -23 82 0 48 10
62 27 37z m1321 -54 c46 -32 17 -83 -75 -131 -75 -39 -112 -45 -168 -28 -45
13 -85 40 -85 55 0 19 36 18 77 0 64 -28 82 -12 43 37 -23 29 -26 53 -7 53 6
0 40 -13 74 -29 51 -25 64 -27 73 -16 8 10 8 19 1 34 -6 11 -11 24 -11 30 0
16 53 13 78 -5z"/>
<path d="M2570 3681 c-59 -14 -86 -28 -114 -62 -22 -25 -26 -40 -24 -73 l3
-41 210 0 210 0 -1 47 c0 56 -20 82 -81 110 -48 21 -151 31 -203 19z m141 -52
c49 -11 99 -45 99 -69 0 -6 -57 -10 -166 -10 -148 0 -165 2 -162 16 5 25 51
56 95 64 57 11 77 11 134 -1z"/>
<path d="M2331 2944 c-12 -15 -21 -39 -21 -53 0 -34 26 -71 50 -71 45 0 69
100 32 133 -25 23 -37 21 -61 -9z"/>
<path d="M2904 2962 c-17 -11 -34 -48 -34 -74 0 -32 27 -68 50 -68 48 0 70
105 28 134 -25 18 -29 19 -44 8z"/>
<path d="M2614 2845 c-7 -17 21 -65 37 -65 16 0 22 30 11 56 -13 27 -40 32
-48 9z"/>
<path d="M2480 2326 c0 -23 42 -68 76 -82 43 -18 125 -18 168 0 40 17 76 53
76 78 0 24 -27 23 -39 -1 -15 -27 -72 -51 -121 -51 -51 0 -107 25 -115 51 -7
22 -45 26 -45 5z"/>
</g>
</svg>
